<svg width="44" height="20" viewBox="0 0 44 20" fill="none" xmlns="http://www.w3.org/2000/svg">
<path d="M0.0880001 19V2.08H6.784C8.592 2.08 9.984 2.504 10.96 3.352C11.936 4.2 12.424 5.408 12.424 6.976C12.424 7.968 12.2 8.832 11.752 9.568C11.32 10.288 10.68 10.84 9.832 11.224C8.984 11.592 7.968 11.776 6.784 11.776L7.024 11.464H7.504C8.128 11.464 8.672 11.624 9.136 11.944C9.6 12.264 10.024 12.776 10.408 13.48L13.384 19H11.224L8.296 13.576C8.056 13.128 7.784 12.776 7.48 12.52C7.192 12.264 6.856 12.088 6.472 11.992C6.104 11.896 5.656 11.848 5.128 11.848H2.056V19H0.0880001ZM2.056 10.288H6.496C7.808 10.288 8.8 10.016 9.472 9.472C10.144 8.912 10.48 8.08 10.48 6.976C10.48 5.904 10.144 5.096 9.472 4.552C8.8 3.992 7.808 3.712 6.496 3.712H2.056V10.288ZM23.5347 19.216C22.6547 19.216 21.8227 19.136 21.0387 18.976C20.2707 18.816 19.5587 18.592 18.9027 18.304C18.2627 18 17.6787 17.632 17.1507 17.2L17.8467 15.616C18.3907 16.016 18.9427 16.36 19.5027 16.648C20.0787 16.92 20.6947 17.128 21.3507 17.272C22.0227 17.4 22.7507 17.464 23.5347 17.464C24.9747 17.464 26.0387 17.2 26.7267 16.672C27.4307 16.128 27.7827 15.416 27.7827 14.536C27.7827 14.072 27.6707 13.672 27.4467 13.336C27.2387 13 26.8867 12.712 26.3907 12.472C25.9107 12.232 25.2787 12.032 24.4947 11.872L21.9987 11.368C20.4947 11.048 19.3667 10.528 18.6147 9.808C17.8787 9.072 17.5107 8.096 17.5107 6.88C17.5107 5.872 17.7667 4.992 18.2787 4.24C18.8067 3.488 19.5347 2.904 20.4627 2.488C21.4067 2.072 22.4787 1.864 23.6787 1.864C24.4467 1.864 25.1747 1.944 25.8627 2.104C26.5507 2.264 27.1827 2.504 27.7587 2.824C28.3507 3.128 28.8707 3.504 29.3187 3.952L28.6227 5.488C27.9027 4.832 27.1427 4.36 26.3427 4.072C25.5427 3.768 24.6467 3.616 23.6547 3.616C22.8067 3.616 22.0707 3.744 21.4467 4C20.8387 4.256 20.3587 4.632 20.0067 5.128C19.6707 5.608 19.5027 6.168 19.5027 6.808C19.5027 7.576 19.7347 8.184 20.1987 8.632C20.6787 9.08 21.4547 9.408 22.5267 9.616L25.0227 10.144C26.6387 10.48 27.8307 10.992 28.5987 11.68C29.3827 12.352 29.7747 13.272 29.7747 14.44C29.7747 15.368 29.5187 16.2 29.0067 16.936C28.5107 17.656 27.7907 18.216 26.8467 18.616C25.9187 19.016 24.8147 19.216 23.5347 19.216ZM38.5355 11.1296C37.8059 11.1296 37.1195 11 36.4763 10.7408C35.8427 10.472 35.2907 10.1024 34.8203 9.632C34.3499 9.1616 33.9803 8.6096 33.7115 7.976C33.4523 7.3328 33.3227 6.6464 33.3227 5.9168C33.3227 5.1776 33.4523 4.4912 33.7115 3.8576C33.9803 3.224 34.3499 2.6768 34.8203 2.216C35.2907 1.7456 35.8427 1.3808 36.4763 1.1216C37.1099 0.852799 37.7963 0.718399 38.5355 0.718399C39.2747 0.718399 39.9611 0.852799 40.5947 1.1216C41.2283 1.3808 41.7755 1.7456 42.2363 2.216C42.7067 2.6768 43.0715 3.224 43.3307 3.8576C43.5995 4.4912 43.7339 5.1776 43.7339 5.9168C43.7339 6.6464 43.5995 7.3328 43.3307 7.976C43.0715 8.6096 42.7067 9.1616 42.2363 9.632C41.7755 10.1024 41.2283 10.472 40.5947 10.7408C39.9611 11 39.2747 11.1296 38.5355 11.1296ZM38.7371 9.0272C38.1227 9.0272 37.5851 8.8976 37.1243 8.6384C36.6731 8.3792 36.3227 8.0144 36.0731 7.544C35.8331 7.0736 35.7131 6.5216 35.7131 5.888C35.7131 5.2544 35.8331 4.712 36.0731 4.2608C36.3227 3.8 36.6731 3.4448 37.1243 3.1952C37.5851 2.9456 38.1227 2.8208 38.7371 2.8208C39.1211 2.8208 39.5003 2.888 39.8747 3.0224C40.2491 3.1472 40.5563 3.3296 40.7963 3.5696L40.4219 4.4048C40.1915 4.1744 39.9323 4.0112 39.6443 3.9152C39.3563 3.8096 39.0779 3.7568 38.8091 3.7568C38.2043 3.7568 37.7291 3.944 37.3835 4.3184C37.0379 4.6928 36.8651 5.2208 36.8651 5.9024C36.8651 6.5744 37.0379 7.1072 37.3835 7.5008C37.7291 7.8944 38.2043 8.0912 38.8091 8.0912C39.0779 8.0912 39.3563 8.0384 39.6443 7.9328C39.9323 7.8272 40.1915 7.664 40.4219 7.4432L40.7963 8.2784C40.5563 8.4992 40.2443 8.6816 39.8603 8.8256C39.4859 8.96 39.1115 9.0272 38.7371 9.0272ZM38.5355 10.4672C39.1787 10.4672 39.7739 10.352 40.3211 10.1216C40.8683 9.8912 41.3435 9.5696 41.7467 9.1568C42.1595 8.744 42.4763 8.264 42.6971 7.7168C42.9275 7.16 43.0427 6.56 43.0427 5.9168C43.0427 5.2736 42.9275 4.6784 42.6971 4.1312C42.4763 3.5744 42.1595 3.0944 41.7467 2.6912C41.3435 2.2784 40.8683 1.9568 40.3211 1.7264C39.7739 1.496 39.1787 1.3808 38.5355 1.3808C37.8923 1.3808 37.2923 1.496 36.7355 1.7264C36.1883 1.9568 35.7083 2.2784 35.2955 2.6912C34.8923 3.0944 34.5755 3.5744 34.3451 4.1312C34.1243 4.6784 34.0139 5.2736 34.0139 5.9168C34.0139 6.56 34.1243 7.16 34.3451 7.7168C34.5755 8.264 34.8923 8.744 35.2955 9.1568C35.7083 9.5696 36.1883 9.8912 36.7355 10.1216C37.2923 10.352 37.8923 10.4672 38.5355 10.4672Z" fill="white"/>
</svg>
