<svg width="767" height="164" viewBox="0 0 767 164" fill="none" xmlns="http://www.w3.org/2000/svg">
<rect x="0.789062" y="0.788956" width="765.632" height="162.422" rx="81.211" fill="#0E0F12"/>
<path d="M118.406 35.3981V95.8171V128.651C118.406 129.355 119.257 129.707 119.754 129.21L164.787 84.177C165.675 83.2886 166.174 82.0836 166.174 80.8272V71.3686C166.174 69.862 165.457 68.4452 164.244 67.5525L119.664 34.7621C119.142 34.3786 118.406 34.7509 118.406 35.3981Z" fill="#A0B1BD"/>
<path d="M119.754 84.1373L163.478 127.862C164.473 128.856 163.769 130.557 162.362 130.557H119.196C118.76 130.557 118.406 130.204 118.406 129.768V84.6956C118.406 83.9922 119.257 83.64 119.754 84.1373Z" fill="#FCFCFC"/>
<path d="M220.201 107.5V56.6077H241.279C246.766 56.6077 251.001 57.9312 253.984 60.5781C256.968 63.1768 258.46 66.8343 258.46 71.5506C258.46 75.3525 257.449 78.4806 255.428 80.935C253.407 83.3412 250.543 84.9534 246.838 85.7715C249.148 86.5415 251.097 88.3943 252.685 91.33L261.492 107.5H253.263L244.456 91.2578C243.445 89.3809 242.266 88.1297 240.918 87.504C239.619 86.8303 237.935 86.4934 235.865 86.4934H227.708V107.5H220.201ZM227.708 80.8628H240.052C247.463 80.8628 251.169 77.8068 251.169 71.6949C251.169 65.6312 247.463 62.5993 240.052 62.5993H227.708V80.8628ZM281.475 108.15C279.021 108.15 276.831 107.668 274.906 106.706C272.981 105.743 271.441 104.444 270.286 102.808C269.18 101.172 268.626 99.3187 268.626 97.2494C268.626 94.6506 269.276 92.6053 270.575 91.1134C271.923 89.6215 274.112 88.5387 277.144 87.865C280.224 87.1912 284.363 86.8543 289.561 86.8543H292.015V84.9775C292.015 82.2343 291.437 80.2612 290.282 79.0581C289.127 77.855 287.226 77.2534 284.58 77.2534C282.558 77.2534 280.537 77.5662 278.516 78.1918C276.495 78.7693 274.425 79.7078 272.308 81.0072L270.07 75.8818C271.899 74.5825 274.185 73.5478 276.928 72.7778C279.671 72.0078 282.294 71.6228 284.796 71.6228C289.609 71.6228 293.17 72.7778 295.48 75.0878C297.79 77.3496 298.945 80.9109 298.945 85.7715V107.5H292.087V101.653C291.221 103.674 289.873 105.262 288.045 106.417C286.216 107.572 284.026 108.15 281.475 108.15ZM282.919 102.952C285.518 102.952 287.684 102.038 289.416 100.209C291.149 98.3803 292.015 96.0703 292.015 93.279V91.33H289.633C286.12 91.33 283.352 91.4984 281.331 91.8353C279.358 92.1722 277.938 92.7497 277.072 93.5678C276.254 94.3378 275.845 95.4206 275.845 96.8162C275.845 98.645 276.47 100.137 277.722 101.292C278.973 102.399 280.705 102.952 282.919 102.952ZM311.297 107.5V72.2724H318.371V77.9753C319.43 75.954 320.898 74.39 322.775 73.2831C324.652 72.1762 326.841 71.6228 329.344 71.6228C334.734 71.6228 338.223 73.9809 339.811 78.6971C340.918 76.4834 342.506 74.7509 344.575 73.4996C346.645 72.2484 349.003 71.6228 351.65 71.6228C359.542 71.6228 363.489 76.339 363.489 85.7715V107.5H356.198V86.1325C356.198 83.1487 355.668 80.959 354.609 79.5634C353.599 78.1678 351.914 77.47 349.556 77.47C346.909 77.47 344.816 78.4084 343.276 80.2853C341.736 82.114 340.966 84.6165 340.966 87.7928V107.5H333.675V86.1325C333.675 83.1487 333.17 80.959 332.159 79.5634C331.148 78.1678 329.464 77.47 327.106 77.47C324.459 77.47 322.366 78.4084 320.826 80.2853C319.334 82.114 318.588 84.6165 318.588 87.7928V107.5H311.297ZM391.152 108.15C387.59 108.15 384.51 107.404 381.912 105.912C379.313 104.42 377.292 102.327 375.848 99.6316C374.452 96.8884 373.754 93.64 373.754 89.8862C373.754 86.1325 374.452 82.9081 375.848 80.2131C377.292 77.47 379.313 75.3525 381.912 73.8606C384.51 72.3687 387.59 71.6228 391.152 71.6228C394.617 71.6228 397.648 72.3687 400.247 73.8606C402.846 75.3525 404.867 77.47 406.311 80.2131C407.755 82.9081 408.477 86.1325 408.477 89.8862C408.477 93.64 407.755 96.8884 406.311 99.6316C404.867 102.327 402.846 104.42 400.247 105.912C397.648 107.404 394.617 108.15 391.152 108.15ZM391.152 102.519C394.135 102.519 396.542 101.436 398.37 99.2706C400.199 97.105 401.113 93.9769 401.113 89.8862C401.113 85.7956 400.199 82.6915 398.37 80.574C396.542 78.4084 394.135 77.3256 391.152 77.3256C388.12 77.3256 385.689 78.4084 383.861 80.574C382.032 82.6915 381.118 85.7956 381.118 89.8862C381.118 93.9769 382.032 97.105 383.861 99.2706C385.689 101.436 388.12 102.519 391.152 102.519ZM418.83 107.5V72.2724H425.905V78.1196C427.108 76.0021 428.744 74.39 430.814 73.2831C432.931 72.1762 435.289 71.6228 437.888 71.6228C446.214 71.6228 450.376 76.339 450.376 85.7715V107.5H443.085V86.2047C443.085 83.1728 442.484 80.959 441.281 79.5634C440.126 78.1678 438.297 77.47 435.795 77.47C432.859 77.47 430.501 78.4084 428.72 80.2853C426.988 82.114 426.121 84.5443 426.121 87.5762V107.5H418.83ZM501.476 108.15C497.481 108.15 493.824 107.644 490.503 106.634C487.183 105.575 484.367 104.107 482.057 102.23L484.439 96.3109C486.846 98.1397 489.42 99.5112 492.163 100.426C494.907 101.34 498.011 101.797 501.476 101.797C505.566 101.797 508.574 101.075 510.499 99.6316C512.472 98.1397 513.459 96.2147 513.459 93.8565C513.459 91.9315 512.761 90.4156 511.365 89.3087C509.97 88.1537 507.636 87.2393 504.363 86.5656L496.639 84.9775C492.067 84.015 488.65 82.4268 486.388 80.2131C484.175 77.9993 483.068 75.0156 483.068 71.2618C483.068 68.2299 483.862 65.559 485.45 63.249C487.086 60.939 489.348 59.1584 492.236 57.9071C495.123 56.6077 498.444 55.9581 502.198 55.9581C505.663 55.9581 508.863 56.4874 511.798 57.5462C514.782 58.5568 517.309 60.0487 519.378 62.0218L516.924 67.7246C512.833 64.1153 507.9 62.3106 502.125 62.3106C498.564 62.3106 495.725 63.1046 493.607 64.6927C491.538 66.2809 490.503 68.3984 490.503 71.0453C490.503 73.0665 491.153 74.6787 492.452 75.8818C493.752 77.085 495.917 77.9993 498.949 78.625L506.601 80.2131C511.413 81.2237 514.999 82.7878 517.357 84.9053C519.715 86.9747 520.894 89.79 520.894 93.3512C520.894 96.335 520.1 98.9337 518.512 101.147C516.924 103.361 514.686 105.094 511.798 106.345C508.911 107.548 505.47 108.15 501.476 108.15ZM546.093 108.15C542.531 108.15 539.451 107.404 536.853 105.912C534.254 104.42 532.233 102.327 530.789 99.6316C529.393 96.8884 528.695 93.64 528.695 89.8862C528.695 86.1325 529.393 82.9081 530.789 80.2131C532.233 77.47 534.254 75.3525 536.853 73.8606C539.451 72.3687 542.531 71.6228 546.093 71.6228C549.558 71.6228 552.59 72.3687 555.188 73.8606C557.787 75.3525 559.808 77.47 561.252 80.2131C562.696 82.9081 563.418 86.1325 563.418 89.8862C563.418 93.64 562.696 96.8884 561.252 99.6316C559.808 102.327 557.787 104.42 555.188 105.912C552.59 107.404 549.558 108.15 546.093 108.15ZM546.093 102.519C549.076 102.519 551.483 101.436 553.311 99.2706C555.14 97.105 556.055 93.9769 556.055 89.8862C556.055 85.7956 555.14 82.6915 553.311 80.574C551.483 78.4084 549.076 77.3256 546.093 77.3256C543.061 77.3256 540.631 78.4084 538.802 80.574C536.973 82.6915 536.059 85.7956 536.059 89.8862C536.059 93.9769 536.973 97.105 538.802 99.2706C540.631 101.436 543.061 102.519 546.093 102.519ZM586.332 108.15C577.814 108.15 573.555 103.409 573.555 93.9287V72.2724H580.846V94.0009C580.846 96.8403 581.423 98.9337 582.578 100.281C583.733 101.629 585.562 102.302 588.065 102.302C590.808 102.302 593.022 101.388 594.706 99.5594C596.438 97.7306 597.305 95.2762 597.305 92.1962V72.2724H604.596V107.5H597.521V101.869C596.366 103.939 594.826 105.503 592.901 106.562C590.976 107.62 588.787 108.15 586.332 108.15ZM629.38 108.15C626.493 108.15 623.798 107.789 621.295 107.067C618.793 106.297 616.699 105.238 615.015 103.891L617.108 98.9819C618.889 100.233 620.838 101.196 622.956 101.869C625.121 102.543 627.287 102.88 629.452 102.88C632.003 102.88 633.928 102.423 635.227 101.508C636.527 100.594 637.177 99.3669 637.177 97.8269C637.177 96.5756 636.743 95.6131 635.877 94.9394C635.011 94.2175 633.712 93.664 631.979 93.279L625.121 91.9075C619.057 90.6562 616.026 87.5281 616.026 82.5231C616.026 79.2025 617.349 76.5556 619.996 74.5825C622.643 72.6093 626.108 71.6228 630.391 71.6228C632.845 71.6228 635.179 71.9837 637.393 72.7056C639.655 73.4275 641.532 74.5103 643.024 75.954L640.93 80.8628C639.487 79.6115 637.826 78.649 635.949 77.9753C634.072 77.3015 632.22 76.9646 630.391 76.9646C627.888 76.9646 625.987 77.4459 624.688 78.4084C623.389 79.3228 622.739 80.574 622.739 82.1622C622.739 84.5684 624.327 86.1084 627.503 86.7822L634.361 88.1537C637.489 88.7793 639.847 89.8381 641.436 91.33C643.072 92.8219 643.89 94.8431 643.89 97.3937C643.89 100.762 642.567 103.409 639.92 105.334C637.273 107.211 633.76 108.15 629.38 108.15ZM665.429 108.15C662.975 108.15 660.785 107.668 658.86 106.706C656.935 105.743 655.395 104.444 654.24 102.808C653.133 101.172 652.58 99.3187 652.58 97.2494C652.58 94.6506 653.229 92.6053 654.529 91.1134C655.876 89.6215 658.066 88.5387 661.098 87.865C664.178 87.1912 668.316 86.8543 673.514 86.8543H675.968V84.9775C675.968 82.2343 675.391 80.2612 674.236 79.0581C673.081 77.855 671.18 77.2534 668.533 77.2534C666.512 77.2534 664.491 77.5662 662.469 78.1918C660.448 78.7693 658.379 79.7078 656.261 81.0072L654.023 75.8818C655.852 74.5825 658.138 73.5478 660.881 72.7778C663.624 72.0078 666.247 71.6228 668.75 71.6228C673.562 71.6228 677.123 72.7778 679.433 75.0878C681.743 77.3496 682.898 80.9109 682.898 85.7715V107.5H676.041V101.653C675.174 103.674 673.827 105.262 671.998 106.417C670.169 107.572 667.98 108.15 665.429 108.15ZM666.873 102.952C669.471 102.952 671.637 102.038 673.37 100.209C675.102 98.3803 675.968 96.0703 675.968 93.279V91.33H673.586C670.073 91.33 667.306 91.4984 665.285 91.8353C663.311 92.1722 661.892 92.7497 661.026 93.5678C660.207 94.3378 659.798 95.4206 659.798 96.8162C659.798 98.645 660.424 100.137 661.675 101.292C662.926 102.399 664.659 102.952 666.873 102.952Z" fill="white"/>
</svg>
