<svg width="729" height="162" viewBox="0 0 729 162" fill="none" xmlns="http://www.w3.org/2000/svg">
<rect x="0.789062" y="0.788956" width="727.28" height="161.163" rx="80.5814" fill="#0E0F12"/>
<path d="M79.3359 34.3498V94.7688V127.603C79.3359 128.306 80.1864 128.659 80.6838 128.161L125.716 83.1287C126.605 82.2403 127.104 81.0353 127.104 79.7789V70.3203C127.104 68.8137 126.387 67.3969 125.173 66.5042L80.5933 33.7138C80.0719 33.3303 79.3359 33.7026 79.3359 34.3498Z" fill="#A0B1BD"/>
<path d="M80.6838 83.089L124.408 126.813C125.403 127.808 124.698 129.509 123.292 129.509H80.1255C79.6894 129.509 79.3359 129.156 79.3359 128.72V83.6473C79.3359 82.9439 80.1864 82.5917 80.6838 83.089Z" fill="#FCFCFC"/>
<path d="M181.849 106.87V55.9781H202.928C208.414 55.9781 212.649 57.3015 215.633 59.9484C218.617 62.5471 220.109 66.2046 220.109 70.9209C220.109 74.7228 219.098 77.8509 217.077 80.3053C215.055 82.7115 212.192 84.3237 208.486 85.1419C210.796 85.9119 212.745 87.7647 214.333 90.7003L223.14 106.87H214.911L206.104 90.6281C205.093 88.7512 203.914 87.5 202.567 86.8744C201.268 86.2006 199.583 85.8637 197.514 85.8637H189.357V106.87H181.849ZM189.357 80.2331H201.701C209.112 80.2331 212.818 77.1772 212.818 71.0653C212.818 65.0015 209.112 61.9696 201.701 61.9696H189.357V80.2331ZM243.124 107.52C240.67 107.52 238.48 107.039 236.555 106.076C234.63 105.114 233.09 103.814 231.935 102.178C230.828 100.542 230.275 98.6891 230.275 96.6197C230.275 94.0209 230.924 91.9756 232.224 90.4837C233.571 88.9919 235.761 87.9091 238.793 87.2353C241.873 86.5616 246.011 86.2247 251.209 86.2247H253.663V84.3478C253.663 81.6047 253.086 79.6315 251.931 78.4284C250.776 77.2253 248.875 76.6237 246.228 76.6237C244.207 76.6237 242.185 76.9365 240.164 77.5622C238.143 78.1397 236.074 79.0781 233.956 80.3775L231.718 75.2522C233.547 73.9528 235.833 72.9181 238.576 72.1481C241.319 71.3781 243.942 70.9931 246.445 70.9931C251.257 70.9931 254.818 72.1481 257.128 74.4581C259.438 76.72 260.593 80.2812 260.593 85.1419V106.87H253.736V101.023C252.869 103.044 251.522 104.633 249.693 105.788C247.864 106.943 245.675 107.52 243.124 107.52ZM244.568 102.323C247.166 102.323 249.332 101.408 251.065 99.5794C252.797 97.7506 253.663 95.4406 253.663 92.6494V90.7003H251.281C247.768 90.7003 245.001 90.8687 242.98 91.2056C241.006 91.5425 239.587 92.12 238.72 92.9381C237.902 93.7081 237.493 94.7909 237.493 96.1866C237.493 98.0153 238.119 99.5072 239.37 100.662C240.621 101.769 242.354 102.323 244.568 102.323ZM272.945 106.87V71.6428H280.02V77.3456C281.078 75.3243 282.546 73.7603 284.423 72.6534C286.3 71.5465 288.49 70.9931 290.992 70.9931C296.382 70.9931 299.871 73.3512 301.459 78.0675C302.566 75.8537 304.154 74.1212 306.224 72.87C308.293 71.6187 310.651 70.9931 313.298 70.9931C321.191 70.9931 325.137 75.7093 325.137 85.1419V106.87H317.846V85.5028C317.846 82.519 317.317 80.3294 316.258 78.9337C315.247 77.5381 313.563 76.8403 311.205 76.8403C308.558 76.8403 306.464 77.7787 304.924 79.6556C303.384 81.4844 302.614 83.9869 302.614 87.1631V106.87H295.323V85.5028C295.323 82.519 294.818 80.3294 293.808 78.9337C292.797 77.5381 291.113 76.8403 288.754 76.8403C286.108 76.8403 284.014 77.7787 282.474 79.6556C280.982 81.4844 280.236 83.9869 280.236 87.1631V106.87H272.945ZM352.8 107.52C349.239 107.52 346.159 106.774 343.56 105.282C340.961 103.79 338.94 101.697 337.496 99.0019C336.101 96.2588 335.403 93.0103 335.403 89.2566C335.403 85.5028 336.101 82.2784 337.496 79.5834C338.94 76.8403 340.961 74.7228 343.56 73.2309C346.159 71.739 349.239 70.9931 352.8 70.9931C356.265 70.9931 359.297 71.739 361.896 73.2309C364.494 74.7228 366.516 76.8403 367.959 79.5834C369.403 82.2784 370.125 85.5028 370.125 89.2566C370.125 93.0103 369.403 96.2588 367.959 99.0019C366.516 101.697 364.494 103.79 361.896 105.282C359.297 106.774 356.265 107.52 352.8 107.52ZM352.8 101.889C355.784 101.889 358.19 100.807 360.019 98.6409C361.848 96.4753 362.762 93.3472 362.762 89.2566C362.762 85.1659 361.848 82.0619 360.019 79.9444C358.19 77.7787 355.784 76.6959 352.8 76.6959C349.768 76.6959 347.338 77.7787 345.509 79.9444C343.68 82.0619 342.766 85.1659 342.766 89.2566C342.766 93.3472 343.68 96.4753 345.509 98.6409C347.338 100.807 349.768 101.889 352.8 101.889ZM380.479 106.87V71.6428H387.553V77.49C388.756 75.3725 390.393 73.7603 392.462 72.6534C394.58 71.5465 396.938 70.9931 399.536 70.9931C407.862 70.9931 412.025 75.7093 412.025 85.1419V106.87H404.734V85.575C404.734 82.5431 404.132 80.3294 402.929 78.9337C401.774 77.5381 399.945 76.8403 397.443 76.8403C394.507 76.8403 392.149 77.7787 390.369 79.6556C388.636 81.4844 387.77 83.9147 387.77 86.9466V106.87H380.479ZM463.124 107.52C459.13 107.52 455.472 107.015 452.152 106.004C448.831 104.945 446.016 103.478 443.706 101.601L446.088 95.6813C448.494 97.51 451.069 98.8816 453.812 99.7959C456.555 100.71 459.659 101.168 463.124 101.168C467.215 101.168 470.223 100.446 472.148 99.0019C474.121 97.51 475.107 95.585 475.107 93.2269C475.107 91.3019 474.409 89.7859 473.014 88.6791C471.618 87.5241 469.284 86.6097 466.012 85.9359L458.288 84.3478C453.716 83.3853 450.299 81.7972 448.037 79.5834C445.823 77.3697 444.716 74.3859 444.716 70.6322C444.716 67.6003 445.51 64.9293 447.098 62.6193C448.735 60.3093 450.997 58.5287 453.884 57.2774C456.772 55.9781 460.092 55.3284 463.846 55.3284C467.311 55.3284 470.511 55.8578 473.447 56.9165C476.431 57.9271 478.957 59.419 481.027 61.3921L478.572 67.095C474.482 63.4856 469.549 61.6809 463.774 61.6809C460.213 61.6809 457.373 62.475 455.256 64.0631C453.186 65.6512 452.152 67.7687 452.152 70.4156C452.152 72.4368 452.801 74.049 454.101 75.2522C455.4 76.4553 457.566 77.3697 460.598 77.9953L468.249 79.5834C473.062 80.594 476.647 82.1581 479.005 84.2756C481.364 86.345 482.543 89.1603 482.543 92.7216C482.543 95.7053 481.749 98.3041 480.16 100.518C478.572 102.732 476.334 104.464 473.447 105.715C470.559 106.918 467.118 107.52 463.124 107.52ZM507.741 107.52C504.18 107.52 501.1 106.774 498.501 105.282C495.902 103.79 493.881 101.697 492.437 99.0019C491.042 96.2588 490.344 93.0103 490.344 89.2566C490.344 85.5028 491.042 82.2784 492.437 79.5834C493.881 76.8403 495.902 74.7228 498.501 73.2309C501.1 71.739 504.18 70.9931 507.741 70.9931C511.206 70.9931 514.238 71.739 516.837 73.2309C519.436 74.7228 521.457 76.8403 522.901 79.5834C524.344 82.2784 525.066 85.5028 525.066 89.2566C525.066 93.0103 524.344 96.2588 522.901 99.0019C521.457 101.697 519.436 103.79 516.837 105.282C514.238 106.774 511.206 107.52 507.741 107.52ZM507.741 101.889C510.725 101.889 513.131 100.807 514.96 98.6409C516.789 96.4753 517.703 93.3472 517.703 89.2566C517.703 85.1659 516.789 82.0619 514.96 79.9444C513.131 77.7787 510.725 76.6959 507.741 76.6959C504.709 76.6959 502.279 77.7787 500.45 79.9444C498.621 82.0619 497.707 85.1659 497.707 89.2566C497.707 93.3472 498.621 96.4753 500.45 98.6409C502.279 100.807 504.709 101.889 507.741 101.889ZM547.981 107.52C539.463 107.52 535.203 102.78 535.203 93.2991V71.6428H542.494V93.3712C542.494 96.2106 543.072 98.3041 544.227 99.6516C545.382 100.999 547.211 101.673 549.713 101.673C552.456 101.673 554.67 100.758 556.354 98.9297C558.087 97.1009 558.953 94.6466 558.953 91.5666V71.6428H566.244V106.87H559.17V101.24C558.015 103.309 556.475 104.873 554.55 105.932C552.625 106.991 550.435 107.52 547.981 107.52ZM591.029 107.52C588.141 107.52 585.446 107.159 582.944 106.437C580.441 105.667 578.348 104.608 576.663 103.261L578.757 98.3522C580.537 99.6034 582.486 100.566 584.604 101.24C586.77 101.913 588.935 102.25 591.101 102.25C593.652 102.25 595.577 101.793 596.876 100.879C598.175 99.9644 598.825 98.7372 598.825 97.1972C598.825 95.9459 598.392 94.9834 597.526 94.3097C596.659 93.5878 595.36 93.0344 593.627 92.6494L586.77 91.2778C580.706 90.0266 577.674 86.8984 577.674 81.8934C577.674 78.5728 578.997 75.9259 581.644 73.9528C584.291 71.9797 587.756 70.9931 592.039 70.9931C594.494 70.9931 596.828 71.354 599.042 72.0759C601.303 72.7978 603.18 73.8806 604.672 75.3243L602.579 80.2331C601.135 78.9819 599.475 78.0194 597.598 77.3456C595.721 76.6719 593.868 76.335 592.039 76.335C589.537 76.335 587.636 76.8162 586.337 77.7787C585.037 78.6931 584.387 79.9444 584.387 81.5325C584.387 83.9387 585.976 85.4787 589.152 86.1525L596.01 87.5241C599.138 88.1497 601.496 89.2084 603.084 90.7003C604.72 92.1922 605.538 94.2134 605.538 96.7641C605.538 100.133 604.215 102.78 601.568 104.705C598.921 106.582 595.408 107.52 591.029 107.52ZM627.077 107.52C624.623 107.52 622.433 107.039 620.508 106.076C618.583 105.114 617.043 103.814 615.888 102.178C614.781 100.542 614.228 98.6891 614.228 96.6197C614.228 94.0209 614.878 91.9756 616.177 90.4837C617.525 88.9919 619.714 87.9091 622.746 87.2353C625.826 86.5616 629.965 86.2247 635.162 86.2247H637.617V84.3478C637.617 81.6047 637.039 79.6315 635.884 78.4284C634.729 77.2253 632.828 76.6237 630.181 76.6237C628.16 76.6237 626.139 76.9365 624.118 77.5622C622.096 78.1397 620.027 79.0781 617.91 80.3775L615.672 75.2522C617.5 73.9528 619.786 72.9181 622.53 72.1481C625.273 71.3781 627.896 70.9931 630.398 70.9931C635.211 70.9931 638.772 72.1481 641.082 74.4581C643.392 76.72 644.547 80.2812 644.547 85.1419V106.87H637.689V101.023C636.823 103.044 635.475 104.633 633.646 105.788C631.818 106.943 629.628 107.52 627.077 107.52ZM628.521 102.323C631.12 102.323 633.286 101.408 635.018 99.5794C636.751 97.7506 637.617 95.4406 637.617 92.6494V90.7003H635.235C631.721 90.7003 628.954 90.8687 626.933 91.2056C624.96 91.5425 623.54 92.12 622.674 92.9381C621.856 93.7081 621.447 94.7909 621.447 96.1866C621.447 98.0153 622.072 99.5072 623.324 100.662C624.575 101.769 626.307 102.323 628.521 102.323Z" fill="white"/>
</svg>
